<?xml version="1.0" standalone="no"?>
<!DOCTYPE svg PUBLIC "-//W3C//DTD SVG 20010904//EN"
 "http://www.w3.org/TR/2001/REC-SVG-20010904/DTD/svg10.dtd">
<svg version="1.0" xmlns="http://www.w3.org/2000/svg"
 width="2095.000000pt" height="2095.000000pt" viewBox="0 0 2095.000000 2095.000000"
 preserveAspectRatio="xMidYMid meet">
<metadata>
Created by potrace 1.14, written by Peter Selinger 2001-2017
</metadata>
<g transform="translate(0.000000,2095.000000) scale(0.100000,-0.100000)"
fill="#000000" stroke="none">
<path d="M9958 20945 c-2 -2 -102 -6 -223 -10 -121 -3 -247 -8 -280 -10 -33
-2 -109 -6 -170 -10 -181 -10 -236 -14 -320 -20 -44 -4 -105 -8 -135 -11 -159
-12 -321 -26 -445 -39 -27 -3 -75 -7 -105 -10 -30 -2 -71 -7 -90 -9 -19 -3
-56 -8 -82 -11 -27 -3 -69 -7 -95 -10 -27 -3 -64 -8 -83 -10 -19 -3 -55 -8
-80 -11 -25 -2 -94 -11 -155 -19 -60 -8 -130 -17 -155 -20 -25 -4 -67 -10 -95
-15 -27 -5 -72 -12 -100 -15 -43 -6 -238 -37 -315 -50 -14 -3 -54 -10 -90 -15
-71 -12 -104 -18 -135 -24 -11 -2 -60 -11 -110 -20 -346 -64 -1002 -209 -1135
-251 -25 -8 -56 -16 -70 -19 -29 -5 -238 -63 -363 -100 -48 -14 -126 -38 -174
-52 -251 -74 -768 -258 -938 -334 -11 -5 -69 -30 -130 -55 -120 -51 -428 -201
-540 -263 -386 -213 -738 -488 -808 -633 -30 -61 -56 -184 -117 -554 -47 -290
-90 -583 -105 -721 -5 -50 -13 -119 -20 -164 -4 -34 -10 -81 -20 -172 -2 -24
-7 -63 -9 -88 -3 -25 -8 -76 -11 -115 -3 -38 -8 -83 -10 -100 -2 -16 -7 -66
-10 -110 -4 -44 -8 -96 -10 -115 -2 -19 -7 -82 -10 -140 -4 -58 -8 -123 -10
-145 -3 -22 -7 -89 -10 -150 -3 -60 -8 -141 -10 -180 -21 -384 -28 -1367 -12
-1730 14 -326 21 -461 33 -615 3 -47 8 -103 9 -125 4 -65 16 -217 19 -255 2
-19 7 -71 10 -115 4 -44 9 -93 11 -110 2 -16 7 -61 10 -100 3 -38 8 -88 11
-110 3 -22 7 -53 9 -70 2 -16 7 -57 10 -90 3 -33 7 -71 10 -85 2 -14 7 -50 10
-81 3 -31 8 -67 10 -79 2 -12 7 -49 10 -83 3 -34 8 -69 10 -77 2 -8 7 -40 10
-70 3 -30 8 -62 10 -70 2 -8 7 -37 10 -65 6 -58 6 -57 41 -265 19 -115 19
-118 33 -205 6 -38 13 -81 16 -95 5 -25 51 -280 60 -335 3 -16 8 -41 11 -55 3
-14 8 -36 10 -50 3 -14 13 -65 24 -115 21 -102 27 -131 39 -195 7 -36 108
-487 127 -562 2 -10 6 -26 8 -35 2 -10 14 -56 26 -103 12 -47 23 -92 25 -100
2 -8 13 -51 24 -95 12 -44 23 -87 25 -95 31 -124 177 -648 196 -700 5 -14 21
-65 35 -115 40 -132 155 -497 165 -520 4 -11 27 -76 50 -145 23 -69 45 -134
50 -145 4 -11 36 -99 69 -195 34 -96 75 -209 91 -250 16 -41 60 -158 99 -260
39 -102 76 -196 83 -210 14 -31 15 -35 87 -210 32 -80 95 -229 139 -331 74
-171 104 -238 167 -374 13 -27 34 -75 48 -105 55 -122 165 -349 289 -595 119
-237 157 -311 238 -460 15 -27 46 -86 70 -130 36 -65 142 -255 230 -410 344
-604 859 -1376 1286 -1926 140 -180 379 -475 404 -499 9 -8 26 -28 38 -44 41
-53 187 -217 357 -400 305 -330 684 -686 965 -910 47 -37 92 -73 100 -79 208
-168 593 -421 795 -522 44 -22 82 -43 83 -47 2 -5 7 -8 12 -8 4 0 41 -15 82
-34 355 -166 651 -243 963 -252 178 -4 301 9 472 51 108 27 281 82 298 95 6 4
24 10 40 14 45 11 380 177 486 240 50 31 96 56 101 56 4 0 8 5 8 10 0 6 5 10
11 10 14 0 258 164 399 268 123 91 375 292 426 340 17 15 44 39 60 51 32 25
140 121 249 221 113 104 612 606 715 719 52 57 100 109 105 115 6 6 62 70 125
141 62 72 116 132 120 135 3 3 25 30 50 60 25 30 47 57 50 60 12 10 279 334
318 385 4 6 52 66 107 135 93 117 422 553 491 651 17 24 84 118 148 209 315
442 743 1107 1033 1600 86 148 323 561 323 565 0 1 27 51 60 110 33 59 60 109
60 110 0 2 17 34 38 72 88 155 393 754 509 998 34 72 84 177 111 235 58 123
242 529 242 535 0 3 16 40 36 82 51 113 47 104 120 278 296 712 599 1547 783
2160 16 55 45 152 65 215 32 108 133 464 142 503 2 9 6 25 8 35 11 46 38 152
50 192 8 25 30 115 51 200 39 167 47 199 51 215 22 88 123 553 138 635 2 14
16 86 30 160 14 74 28 144 30 155 3 18 12 72 22 135 3 14 9 48 14 75 5 28 12
66 15 85 23 151 36 239 40 259 2 13 7 43 10 65 3 23 12 88 20 146 8 58 24 184
35 280 11 96 22 191 25 210 2 19 7 64 10 100 3 36 8 85 10 110 10 91 14 147
20 230 4 47 8 101 10 120 2 19 6 89 10 155 3 66 8 143 10 170 24 328 24 1243
0 1565 -2 30 -7 105 -10 165 -3 61 -7 126 -10 145 -2 19 -7 71 -10 115 -3 44
-8 98 -10 120 -12 134 -17 182 -20 195 -2 8 -7 49 -10 90 -4 41 -9 83 -11 94
-2 10 -6 44 -9 75 -7 60 -13 101 -20 141 -2 14 -7 45 -10 70 -12 87 -56 356
-76 465 -12 61 -23 121 -25 135 -15 80 -36 156 -55 192 -31 60 -109 139 -182
182 -34 21 -91 56 -127 78 -167 105 -638 370 -683 384 -12 3 -33 14 -47 23
-120 78 -1000 466 -1220 537 -25 8 -54 19 -65 24 -22 11 -52 22 -310 110 -171
58 -481 158 -513 165 -19 4 -209 59 -257 74 -26 9 -301 81 -360 96 -11 2 -74
18 -140 34 -66 16 -131 32 -145 34 -14 3 -97 21 -185 41 -88 19 -171 37 -185
40 -14 2 -70 14 -125 25 -92 18 -330 62 -415 76 -19 3 -42 8 -50 10 -8 2 -37
7 -65 11 -27 3 -57 7 -65 9 -8 1 -35 5 -60 9 -25 4 -57 9 -72 12 -16 2 -40 6
-55 8 -39 6 -182 27 -218 31 -16 2 -64 9 -105 14 -41 6 -97 13 -125 16 -60 6
-128 15 -172 21 -18 2 -58 6 -90 9 -32 3 -74 7 -93 10 -74 9 -137 16 -190 20
-30 2 -86 7 -125 10 -38 3 -92 7 -120 10 -65 6 -150 13 -415 30 -36 2 -128 7
-205 11 -77 3 -180 8 -230 11 -103 5 -1292 12 -1297 8z"/>
</g>
</svg>
